<?xml version="1.0" standalone="no"?>
<!DOCTYPE svg PUBLIC "-//W3C//DTD SVG 20010904//EN"
 "http://www.w3.org/TR/2001/REC-SVG-20010904/DTD/svg10.dtd">
<svg version="1.0" xmlns="http://www.w3.org/2000/svg"
 width="400.000000pt" height="400.000000pt" viewBox="0 0 400.000000 400.000000"
 preserveAspectRatio="xMidYMid meet">
<metadata>
Created by potrace 1.14, written by Peter Selinger 2001-2017
</metadata>
<g transform="translate(0.000000,400.000000) scale(0.100000,-0.100000)"
fill="#000000" stroke="none">
<path d="M0 2790 c0 -800 3 -1210 10 -1210 6 0 10 7 10 15 0 12 19 15 108 15
72 0 112 4 120 12 17 17 160 28 195 15 21 -7 39 -5 72 8 25 9 54 14 66 10 12
-4 41 -1 65 5 34 10 51 10 70 1 19 -8 30 -8 47 1 13 7 59 11 115 10 109 -1
147 9 139 38 -3 11 3 26 14 36 18 16 19 16 19 -5 0 -12 -7 -29 -15 -37 -8 -9
-15 -32 -15 -53 0 -20 -7 -46 -15 -57 -8 -10 -15 -26 -15 -35 0 -21 -30 -34
-30 -14 0 8 5 15 10 15 6 0 10 5 10 11 0 8 -11 9 -31 5 -19 -4 -38 -1 -46 6
-22 18 -53 20 -77 5 -35 -23 -126 -41 -139 -28 -16 16 -44 14 -51 -5 -8 -21
-8 -26 3 -20 8 5 26 -23 19 -30 -8 -7 -89 -10 -94 -3 -2 4 -11 6 -19 3 -8 -3
-32 9 -54 27 -38 30 -44 32 -98 26 -42 -5 -70 -2 -101 10 -41 15 -43 15 -57
-3 -12 -17 -11 -20 3 -26 9 -4 29 -7 44 -7 35 -1 58 -11 58 -25 1 -20 58 -97
65 -86 9 15 23 12 46 -11 18 -18 25 -19 45 -10 29 13 51 6 59 -20 9 -28 53
-25 57 3 2 16 11 24 30 26 24 3 28 -1 33 -32 9 -44 3 -53 -37 -59 -18 -3 -51
-10 -72 -15 -31 -8 -44 -7 -62 5 -13 8 -45 16 -71 17 l-48 1 3 39 c4 34 2 38
-15 31 -10 -4 -26 -9 -35 -12 -9 -3 -21 -18 -27 -34 -5 -16 -16 -29 -23 -29
-7 0 -23 -15 -36 -34 l-23 -34 -36 24 c-20 13 -41 24 -48 24 -6 0 -17 11 -23
25 -12 26 -38 36 -28 10 3 -8 1 -15 -4 -15 -15 0 -12 -26 5 -40 27 -23 18 -40
-22 -40 -43 0 -69 13 -59 28 3 6 2 13 -3 17 -11 6 -8 -126 4 -144 4 -7 16 -3
35 11 24 17 32 19 45 8 8 -7 15 -8 15 -2 0 5 12 12 27 15 16 3 40 9 55 12 21
6 27 3 33 -15 7 -21 -2 -33 -28 -43 -10 -3 17 -57 35 -68 7 -5 24 -9 38 -9 23
1 24 2 8 14 -18 13 -24 36 -10 37 4 0 26 2 49 4 36 4 45 1 62 -21 19 -24 22
-25 36 -10 11 10 22 13 38 7 32 -11 127 -14 127 -3 0 10 -31 23 -64 27 -10 1
-23 10 -29 20 -9 17 -11 16 -27 -5 -20 -27 -50 -21 -50 10 0 14 7 20 23 20 56
0 65 9 64 58 -2 46 -1 47 31 50 27 3 35 -2 50 -27 14 -26 23 -31 54 -31 30 0
39 5 50 26 17 35 33 28 32 -14 -1 -27 2 -32 22 -32 29 0 29 -1 4 -47 -11 -21
-20 -48 -20 -61 0 -15 -8 -26 -24 -32 -13 -5 -28 -22 -34 -39 -6 -17 -15 -31
-20 -31 -14 0 -23 28 -12 35 16 10 11 27 -7 23 -22 -4 -35 -54 -18 -68 19 -16
-2 -80 -27 -80 -10 0 -18 -6 -18 -14 0 -20 -25 -27 -46 -11 -10 7 -24 10 -32
8 -10 -4 -10 -9 4 -24 20 -22 9 -46 -12 -25 -8 8 -14 21 -14 29 0 17 -49 37
-91 37 -30 0 -48 15 -27 23 7 2 10 8 5 13 -4 4 -15 1 -23 -8 -12 -12 -24 -14
-45 -8 -27 8 -27 7 -16 -13 21 -36 61 -66 88 -67 20 0 30 -8 39 -30 13 -31 24
-37 35 -20 10 17 41 11 60 -10 10 -12 38 -29 62 -40 41 -18 42 -20 36 -52 -3
-18 -7 -35 -9 -37 -9 -10 -63 23 -68 42 -6 20 -7 20 -16 5 -6 -9 -9 -27 -8
-39 4 -32 -26 -36 -40 -5 -16 35 -70 46 -93 17 -9 -11 -23 -21 -29 -21 -8 0
-10 -9 -6 -24 4 -17 1 -26 -11 -31 -23 -8 -42 18 -38 53 6 53 -35 83 -65 47
-16 -19 -29 -19 -70 1 -26 13 -37 14 -51 5 -10 -6 -26 -11 -34 -11 -21 0 -36
-43 -29 -80 4 -19 2 -30 -5 -30 -7 0 -11 -33 -11 -100 0 -105 4 -116 56 -146
17 -10 16 -12 -11 -25 -39 -19 -38 -40 4 -61 19 -9 39 -22 44 -27 16 -16 70
-13 93 4 26 20 37 19 52 -5 20 -32 -12 -80 -53 -80 -56 0 -72 -9 -67 -36 2
-13 0 -24 -4 -24 -25 -1 -36 -18 -25 -39 11 -20 18 -21 225 -21 181 0 215 2
220 15 6 16 48 19 81 6 12 -5 25 -4 33 2 24 19 73 18 102 -3 19 -14 44 -20 77
-20 l48 1 -28 15 c-15 8 -27 19 -27 24 0 5 -9 12 -20 15 -57 18 6 71 92 78 40
3 49 1 54 -15 3 -10 10 -16 15 -13 5 4 9 1 9 -4 0 -14 -17 -14 -25 -1 -4 7
-14 5 -28 -5 -12 -8 -31 -15 -44 -15 -12 0 -25 -5 -29 -12 -5 -8 2 -9 24 -5
17 4 34 2 37 -3 4 -6 10 -8 15 -5 5 3 20 -1 34 -10 15 -10 33 -14 50 -9 17 4
34 0 55 -15 29 -21 30 -21 1004 -21 l975 0 6 31 c3 17 3 35 0 40 -3 5 -7 51
-10 102 -2 50 -7 99 -9 108 -3 9 2 22 11 30 22 18 47 0 54 -37 5 -27 9 -29 43
-26 36 3 37 2 37 -30 0 -26 6 -36 26 -45 62 -29 81 33 20 64 -35 18 -66 43
-66 54 0 4 17 5 38 2 20 -3 62 0 92 5 43 8 61 7 85 -4 16 -8 22 -12 13 -10 -9
3 -22 -1 -28 -9 -10 -11 -6 -16 16 -21 20 -5 30 -2 40 10 10 14 27 17 96 16
123 -2 140 -1 155 11 9 8 17 8 27 0 9 -7 25 -9 43 -4 35 9 56 5 66 -13 13 -23
64 -18 70 7 6 21 3 23 -45 33 -16 4 -27 10 -27 14 1 4 -2 17 -6 28 -7 21 -8
21 -48 6 -23 -9 -49 -21 -57 -28 -22 -18 -166 -16 -181 2 -7 8 -19 12 -28 9
-10 -3 -26 1 -37 9 -36 27 -3 41 104 42 53 1 122 5 153 9 35 4 64 3 76 -3 14
-8 23 -8 30 -1 8 8 17 8 31 0 39 -21 51 -14 45 24 -4 26 -2 35 9 35 27 0 38
-21 23 -44 -12 -19 -11 -24 9 -50 20 -24 28 -27 55 -21 l31 7 -1 89 c-2 86 -3
90 -26 95 -14 4 -42 1 -63 -6 -22 -7 -57 -10 -81 -7 -32 4 -48 1 -66 -13 -12
-10 -44 -21 -70 -25 -27 -4 -53 -11 -60 -17 -8 -6 -18 -4 -31 8 -18 15 -18 18
-3 33 9 10 26 30 38 44 19 23 31 27 73 27 27 0 50 5 50 10 0 6 -4 10 -9 10 -5
0 -12 11 -15 24 -7 30 -52 39 -116 25 -25 -6 -57 -13 -73 -16 -15 -3 -30 -10
-34 -16 -4 -6 -1 -7 6 -2 9 5 12 2 9 -11 -4 -24 -34 -30 -65 -13 -21 11 -25
10 -38 -8 -13 -19 -25 -22 -93 -22 -69 0 -79 -3 -97 -24 -12 -15 -35 -27 -60
-30 -22 -4 -52 -9 -67 -13 -24 -5 -28 -3 -28 15 0 11 4 21 8 21 4 0 8 8 9 18
0 9 9 46 20 81 17 57 22 64 47 67 36 4 40 8 28 31 -15 29 -3 43 36 44 37 1 37
1 7 8 -16 4 -34 4 -39 -1 -15 -12 -46 -10 -46 5 0 6 9 26 19 43 13 21 16 36
10 47 -6 10 -5 25 3 41 11 25 43 34 96 27 6 -1 12 3 12 9 0 5 -12 10 -27 10
-16 0 -36 7 -46 14 -17 13 -16 15 10 36 24 19 26 23 11 31 -28 16 -29 69 -4
184 13 61 22 114 19 118 -3 4 -2 34 2 67 6 51 9 58 26 55 11 -2 17 0 14 6 -4
5 -11 7 -16 4 -5 -4 -9 17 -9 48 0 51 2 55 26 61 17 5 32 2 43 -8 27 -24 96
-37 183 -32 46 2 84 4 85 5 1 1 -1 12 -6 24 -13 34 -2 44 44 43 34 -2 40 -5
44 -26 4 -31 18 -40 52 -33 30 6 46 -11 30 -31 -6 -7 -36 -19 -66 -26 -52 -12
-56 -12 -70 6 -13 16 -16 17 -25 4 -15 -24 -13 -28 30 -50 46 -23 68 -25 95
-6 27 18 90 27 103 14 7 -7 5 -22 -6 -47 -21 -45 -31 -53 -60 -46 -16 4 -29
-2 -45 -19 -27 -29 -90 -44 -112 -26 -12 10 -20 9 -42 -6 -16 -11 -44 -21 -63
-24 -27 -4 -36 -10 -38 -29 -2 -13 -12 -26 -23 -28 -21 -6 -25 -33 -8 -50 19
-19 0 -60 -33 -67 -18 -3 -28 -11 -25 -18 2 -7 9 -12 15 -11 6 1 25 5 42 8 17
3 35 6 38 7 4 1 20 -4 35 -10 35 -15 46 -15 75 2 23 12 22 13 -20 25 -93 28
-113 45 -88 76 11 13 16 12 35 -11 22 -25 30 -27 110 -29 100 -3 119 -14 87
-48 -12 -13 -22 -32 -22 -43 0 -11 -6 -26 -12 -33 -11 -10 -9 -15 6 -27 11 -8
27 -14 36 -14 18 0 53 33 45 42 -3 3 6 3 20 1 19 -4 25 -1 25 12 0 13 -6 16
-25 13 -14 -3 -28 -1 -31 3 -3 5 0 9 5 9 6 0 11 7 11 16 0 9 14 21 30 27 36
14 39 27 6 27 -34 0 -40 15 -39 82 1 32 -2 58 -7 58 -6 0 -10 4 -10 8 0 10 67
32 97 32 26 0 75 -52 68 -73 -4 -10 1 -20 15 -27 29 -15 53 -5 45 19 -3 12 0
21 10 25 22 8 23 411 0 420 -8 3 -15 15 -15 27 0 18 2 19 15 9 13 -11 15 6 15
142 l0 155 -26 -5 c-22 -4 -25 -2 -22 19 2 18 9 23 26 22 l22 -3 0 970 0 970
-452 0 -452 0 40 -42 c22 -24 63 -67 90 -97 27 -30 95 -100 151 -155 56 -56
106 -113 111 -127 8 -20 5 -36 -14 -75 -13 -27 -24 -59 -24 -72 0 -15 -11 -29
-35 -43 -34 -20 -46 -51 -25 -64 20 -12 11 -55 -14 -67 -14 -6 -26 -20 -28
-32 -2 -11 -12 -25 -24 -31 -36 -18 -54 -43 -54 -75 0 -22 -6 -33 -24 -41 -13
-6 -30 -22 -37 -35 -13 -26 -43 -32 -56 -11 -4 6 -10 48 -13 92 -5 79 -5 80
-33 83 -47 6 -56 -10 -50 -92 6 -80 -7 -106 -52 -106 -14 0 -39 -14 -59 -35
-30 -29 -42 -35 -79 -35 -24 0 -58 7 -76 16 -25 13 -37 13 -66 4 -20 -7 -42
-22 -50 -33 -8 -12 -37 -47 -65 -77 -47 -51 -54 -55 -95 -55 l-45 0 0 -42 c0
-50 28 -126 42 -117 20 12 89 10 100 -3 6 -7 22 -13 35 -13 15 0 41 -15 65
-37 31 -30 39 -44 35 -65 -3 -22 2 -29 25 -39 35 -14 38 -46 4 -55 -13 -3 -44
-3 -70 0 -60 6 -53 -3 43 -65 42 -27 83 -55 91 -63 35 -33 124 -86 145 -86 16
0 30 -11 43 -34 20 -33 20 -35 2 -33 -10 1 -17 4 -15 8 3 3 -9 6 -24 5 -16 -1
-29 -5 -28 -11 1 -5 -4 -9 -10 -8 -28 6 -11 -16 20 -26 38 -11 96 -23 99 -20
6 5 84 -40 99 -57 9 -11 25 -35 34 -54 17 -32 14 -31 -28 15 -39 44 -53 53
-114 68 -38 10 -75 17 -83 15 -8 -2 -14 2 -13 8 1 7 -14 15 -35 19 -20 4 -44
13 -53 21 -14 12 -19 11 -39 -11 l-23 -25 -12 23 c-9 17 -8 27 3 45 11 17 11
22 1 22 -7 0 -9 3 -6 7 4 3 -7 19 -25 35 -22 19 -27 28 -15 28 9 0 19 -4 22
-10 3 -5 11 -10 16 -10 15 0 -23 36 -56 53 -16 8 -49 33 -71 56 -23 22 -44 37
-48 34 -3 -4 -6 1 -6 11 0 9 -4 14 -10 11 -5 -3 -10 -3 -11 2 -3 34 -12 57
-29 75 -11 12 -20 27 -20 34 0 6 -7 17 -15 24 -9 8 -13 22 -9 39 l5 26 -23
-30 c-13 -16 -43 -52 -67 -80 -168 -189 -302 -382 -429 -620 -161 -301 -269
-567 -307 -756 -19 -98 -25 -122 -31 -117 -2 2 3 51 12 109 19 132 69 326 129
497 53 151 66 213 69 331 3 80 8 93 41 104 5 2 -4 46 -20 100 -27 85 -32 96
-50 91 -20 -5 -20 -5 -1 10 29 23 0 21 -58 -4 -54 -23 -55 -24 -59 -108 -2
-39 -8 -67 -17 -72 -7 -4 -10 -15 -7 -23 3 -9 0 -21 -8 -27 -7 -6 -18 -24 -25
-40 -7 -17 -16 -30 -20 -30 -9 0 25 132 44 169 7 14 16 64 19 111 3 47 9 95
13 108 l6 23 -83 -30 c-46 -17 -118 -35 -159 -41 -41 -6 -104 -15 -140 -21
-36 -5 -94 -14 -130 -18 -89 -12 -196 -30 -251 -42 -34 -7 -53 -7 -72 2 -32
15 -32 17 -4 50 27 31 99 69 131 69 19 0 25 6 29 33 6 42 2 47 -37 47 -20 0
-40 8 -50 19 -10 11 -30 24 -46 31 -21 9 -29 20 -34 48 -16 102 -19 101 256
105 l228 4 15 -30 c8 -16 15 -43 15 -58 0 -35 21 -56 70 -69 21 -6 58 -22 82
-35 50 -29 104 -32 129 -9 23 21 49 11 49 -18 1 -19 5 -16 22 17 17 31 21 56
20 113 -1 64 0 71 13 58 8 -8 15 -19 15 -25 0 -6 7 -11 15 -11 8 0 15 -7 15
-15 0 -8 5 -15 10 -15 6 0 9 -3 8 -7 -2 -11 9 -41 32 -85 10 -22 14 -40 9 -44
-5 -3 -7 -10 -4 -15 4 -5 -1 -9 -9 -9 -9 0 -16 -5 -16 -12 0 -6 -9 -3 -20 7
-24 21 -25 14 -6 -24 29 -55 35 -54 121 10 44 33 114 80 156 104 81 47 226
152 250 181 9 12 10 15 2 10 -16 -9 -16 -9 5 55 11 32 16 64 12 79 -4 14 -3
35 1 48 5 12 4 34 -2 50 -6 15 -11 29 -11 32 0 3 -5 15 -11 27 -9 20 -17 22
-67 20 -51 -2 -60 1 -79 23 -11 14 -20 28 -21 33 0 4 21 8 48 8 l47 1 -46 8
c-25 4 -67 18 -94 30 -45 20 -47 23 -31 36 13 9 17 22 14 43 -5 34 9 45 33 25
22 -20 122 -25 155 -8 32 17 30 17 47 0 21 -22 39 -22 76 0 74 42 96 77 51 79
-72 3 -120 17 -120 34 0 9 -17 34 -38 54 -34 33 -45 38 -105 44 -71 6 -136
-13 -138 -42 -1 -8 -3 -19 -4 -25 -1 -5 -3 -21 -4 -35 -1 -21 -6 -25 -30 -25
-34 0 -55 22 -47 48 8 25 -34 71 -77 83 -17 5 -58 10 -90 10 -48 1 -62 -2 -82
-21 -26 -24 -33 -49 -15 -51 6 -1 16 -2 23 -3 6 -1 16 3 20 9 5 6 7 4 5 -5 -6
-19 -61 -33 -115 -28 -40 3 -43 2 -43 -22 1 -14 12 -38 25 -55 l25 -30 0 26
c0 23 4 26 25 21 14 -2 22 -8 19 -13 -3 -5 3 -9 13 -9 11 0 24 -5 30 -11 6 -6
38 -17 71 -24 72 -15 114 -1 131 44 9 21 10 15 5 -29 -8 -76 -31 -112 -79
-125 -29 -9 -39 -17 -40 -34 -1 -13 -6 -26 -11 -29 -5 -4 -21 -24 -37 -44 -27
-37 -35 -68 -17 -68 6 0 10 -4 10 -10 0 -5 8 -19 17 -30 13 -14 20 -17 30 -8
17 14 60 -14 73 -47 5 -13 18 -29 29 -34 11 -6 27 -18 35 -27 13 -13 19 -14
31 -4 10 8 29 10 55 6 39 -6 41 -5 63 31 20 34 22 36 25 16 5 -31 17 -29 31 5
32 76 83 98 54 22 -9 -22 -19 -38 -23 -35 -10 6 -56 -38 -64 -62 -7 -23 -71
-55 -121 -60 -16 -2 -51 -7 -77 -12 -28 -5 -49 -4 -50 1 -2 5 -19 11 -38 12
-20 2 -44 8 -55 14 -15 7 -26 7 -39 0 -43 -24 -106 95 -127 238 -9 57 -15 75
-30 79 -11 4 -19 9 -20 13 -7 70 -6 182 3 182 6 0 8 -10 5 -21 -3 -12 -2 -18
2 -13 5 5 11 26 14 47 5 34 3 39 -20 48 -15 5 -41 9 -57 7 l-31 -3 3 -59 c1
-38 10 -71 22 -91 11 -18 20 -40 20 -50 0 -22 -99 -118 -116 -111 -17 6 -26
109 -21 234 2 56 0 102 -5 102 -4 0 -8 8 -8 18 0 29 49 49 137 55 78 6 82 5
85 -15 4 -30 28 -35 28 -6 0 13 11 46 24 73 12 28 26 68 30 90 14 77 68 135
127 135 15 0 19 -7 19 -31 0 -28 2 -30 16 -18 14 11 15 10 12 -6 -2 -12 8 -25
29 -38 28 -16 38 -17 66 -8 21 7 43 8 58 3 25 -10 98 7 152 34 24 13 27 13 27
0 0 -22 34 -38 48 -24 9 9 12 7 12 -7 0 -18 2 -17 20 5 11 14 20 21 20 16 0
-5 10 -1 23 10 12 11 27 20 32 19 25 -4 45 -18 45 -32 0 -8 10 -32 21 -53 18
-32 20 -43 11 -69 -15 -43 12 -118 51 -137 l27 -15 0 40 c0 22 -4 43 -10 46
-5 3 -10 11 -10 16 0 6 4 7 10 4 6 -3 7 1 3 10 -4 12 -8 13 -13 5 -11 -18 -28
17 -22 46 4 22 6 23 21 10 15 -14 17 -13 17 4 0 10 -5 18 -11 17 -5 -1 -9 5
-7 14 1 9 -5 22 -13 29 -8 7 -15 18 -15 24 0 7 -13 23 -30 36 -28 24 -40 60
-20 60 6 0 10 5 10 11 0 8 -4 9 -13 0 -8 -6 -17 -8 -21 -4 -4 4 -4 0 -1 -9 4
-9 0 -18 -9 -21 -11 -4 -16 -1 -16 11 0 15 -2 15 -10 2 -7 -11 -10 -11 -10 -2
0 7 -4 10 -10 7 -6 -4 -7 1 -3 11 4 12 3 15 -5 10 -8 -5 -9 -1 -4 14 4 12 12
21 17 21 22 0 26 31 9 57 -19 30 -32 15 -14 -17 8 -16 8 -21 -2 -21 -8 0 -19
-15 -27 -32 -7 -18 -15 -28 -17 -21 -3 6 2 25 10 41 14 27 14 31 0 42 -12 11
-19 9 -39 -10 -14 -13 -25 -32 -25 -42 0 -11 -4 -17 -9 -13 -6 3 -6 18 -1 36
7 25 6 30 -5 25 -10 -3 -12 0 -8 11 4 10 2 14 -4 10 -6 -4 -13 0 -17 8 -3 8 0
17 6 21 7 5 8 3 3 -5 -5 -9 0 -12 16 -9 27 4 36 48 10 48 -9 0 -29 7 -45 15
-15 8 -37 15 -47 15 -10 0 -21 5 -25 12 -4 6 -3 8 4 4 6 -3 13 -2 17 4 10 16
-21 12 -35 -5 -9 -11 -16 -12 -25 -5 -37 31 -231 -16 -255 -60 -6 -10 -24 -22
-42 -26 -18 -4 -27 -9 -20 -11 8 -3 1 -15 -19 -34 -37 -35 -48 -34 -16 1 13
14 24 29 25 33 0 4 15 24 32 44 23 26 34 32 40 23 5 -8 9 -9 14 -1 4 6 2 11
-3 11 -6 0 -11 3 -11 8 0 10 112 62 136 62 10 0 33 7 49 16 31 16 181 24 203
10 6 -4 19 3 29 16 10 12 33 37 50 56 18 19 33 36 33 38 0 2 -268 4 -596 4
-516 0 -597 -2 -610 -15 -9 -8 -20 -15 -25 -15 -5 0 -9 7 -9 15 0 12 -16 15
-82 15 l-81 0 21 -23 c41 -44 20 -81 -44 -75 -50 4 -65 28 -42 68 l17 30 -444
0 -445 -1 0 -1209z m47 1168 c-3 -8 -6 -5 -6 6 -1 11 2 17 5 13 3 -3 4 -12 1
-19z m1783 -65 c0 -25 -80 -119 -197 -229 -75 -71 -150 -142 -166 -158 -43
-45 -61 -28 -65 60 -2 60 -6 72 -28 90 -21 17 -23 25 -15 45 5 14 15 30 22 36
19 15 354 143 376 143 10 0 25 5 33 10 17 11 40 13 40 3z m-1213 -29 c14 -13
14 -17 2 -25 -23 -14 -39 -10 -39 9 0 33 14 39 37 16z m316 -56 c-7 -12 -38
-9 -51 4 -16 16 -15 45 1 51 13 5 58 -44 50 -55z m1120 -15 c-7 -2 -19 -2 -25
0 -7 3 -2 5 12 5 14 0 19 -2 13 -5z m-775 -255 c3 -150 8 -159 79 -139 74 21
97 20 101 -6 4 -30 -19 -40 -115 -48 -69 -6 -87 -5 -108 9 -35 23 -46 56 -29
81 9 13 14 50 14 110 0 92 8 115 40 115 13 0 15 -20 18 -122z m435 82 c-3 -11
-10 -23 -16 -27 -5 -3 -8 -2 -5 3 3 5 8 17 11 27 9 24 16 22 10 -3z m574 -12
c-3 -8 -6 -5 -6 6 -1 11 2 17 5 13 3 -3 4 -12 1 -19z m-1976 -53 c28 -62 73
-111 109 -118 16 -4 30 -13 30 -20 0 -8 11 -20 25 -27 16 -9 40 -43 63 -89 36
-73 56 -98 112 -132 19 -12 32 -14 50 -7 14 5 48 7 77 4 38 -3 55 -1 63 10 22
25 65 17 97 -20 49 -55 73 -118 86 -222 13 -100 29 -127 47 -80 13 36 30 32
30 -7 0 -40 23 -77 35 -57 4 7 6 76 5 154 -6 270 -7 251 16 254 19 3 24 -5 34
-49 7 -29 21 -62 31 -73 11 -11 19 -24 19 -28 0 -5 4 -7 10 -3 16 10 39 -38
50 -108 12 -79 2 -112 -31 -102 -25 8 -51 -22 -43 -49 7 -22 -23 -93 -42 -100
-25 -10 -64 13 -85 49 -29 48 -61 47 -94 -3 -15 -23 -39 -43 -60 -51 -33 -12
-37 -11 -55 11 -22 27 -21 20 -20 158 1 81 -3 110 -15 125 -15 20 -15 20 -30
0 -19 -24 -35 -80 -35 -121 0 -42 -7 -46 -44 -27 -17 9 -42 17 -55 17 -23 1
-34 13 -45 49 -4 11 -15 17 -35 17 -43 0 -45 24 -3 51 44 30 52 49 19 49 -13
0 -30 7 -37 15 -8 9 -29 15 -56 15 -31 0 -46 5 -52 18 -11 19 -9 84 3 121 6
20 4 23 -9 18 -10 -4 -20 1 -26 13 -5 10 -18 21 -28 24 -9 3 -28 29 -41 57
-14 28 -33 56 -43 63 -12 7 -18 23 -18 46 0 36 -32 100 -50 100 -18 0 -30 48
-20 75 15 38 39 30 61 -20z m1452 -321 c12 -12 -18 -32 -34 -23 -9 4 -19 5
-23 2 -3 -3 -6 -1 -6 5 0 17 49 30 63 16z m657 -58 c0 -14 -4 -28 -10 -31 -5
-3 -10 0 -10 9 0 8 -3 21 -6 30 -4 11 -1 16 10 16 10 0 16 -9 16 -24z m-336
-33 c3 -27 8 -59 9 -73 6 -37 -19 -87 -52 -104 -15 -8 -31 -12 -35 -9 -3 3
-22 6 -41 5 -38 -1 -47 16 -20 38 8 6 28 42 45 78 17 37 35 75 40 84 6 11 5
18 -3 21 -7 3 2 6 19 6 31 1 32 -1 38 -46z m43 -149 c9 -23 -13 -40 -32 -24
-12 10 -13 16 -4 26 15 18 28 18 36 -2z m-191 -69 c4 -8 13 -15 22 -15 13 0
13 -2 -3 -14 -17 -12 -17 -13 8 -20 41 -10 32 -23 -19 -31 -48 -7 -84 8 -51
21 21 8 12 24 -14 24 -18 0 -19 1 -3 25 18 28 51 33 60 10z m167 -72 c-7 -2
-21 -2 -30 0 -10 3 -4 5 12 5 17 0 24 -2 18 -5z m-70 -10 c-7 -2 -19 -2 -25 0
-7 3 -2 5 12 5 14 0 19 -2 13 -5z m6 -53 c33 0 42 -3 31 -10 -17 -11 -107 -3
-130 12 -10 6 -4 8 19 4 18 -3 54 -6 80 -6z m-729 -86 c0 -8 -7 -14 -15 -14
-15 0 -21 21 -9 33 10 9 24 -2 24 -19z m2497 -301 c14 -16 32 -38 40 -50 10
-15 25 -23 44 -23 35 0 48 -19 24 -37 -27 -19 -56 -16 -62 7 -3 10 -16 26 -30
35 -15 10 -22 22 -19 31 3 9 -4 19 -19 26 -28 13 -41 38 -19 38 8 0 27 -12 41
-27z m-1842 -33 c3 -5 1 -10 -4 -10 -6 0 -11 5 -11 10 0 6 2 10 4 10 3 0 8 -4
11 -10z m2003 -109 c19 -11 11 -45 -11 -49 -19 -4 -32 20 -23 43 6 17 15 19
34 6z m-193 -131 c31 -34 13 -49 -57 -47 -78 2 -85 23 -18 48 58 22 54 22 75
-1z m107 -35 c-5 -25 -8 -29 -21 -20 -19 11 -13 47 7 43 11 -2 16 -11 14 -23z
m-24 -58 c4 -20 -25 -34 -40 -19 -15 15 -1 44 19 40 10 -2 19 -11 21 -21z
m102 -76 c0 -22 -29 -36 -43 -22 -15 15 0 41 23 41 13 0 20 -7 20 -19z m-816
-81 c20 -20 -3 -20 -80 0 l-79 19 75 -4 c41 -3 79 -10 84 -15z m684 -169 c3
-8 -1 -12 -9 -9 -7 2 -15 10 -17 17 -3 8 1 12 9 9 7 -2 15 -10 17 -17z m-34
-17 c18 -7 13 -45 -10 -78 -15 -21 -18 -17 -28 41 -3 20 -1 33 7 37 7 2 13 5
14 5 1 1 8 -2 17 -5z m91 -24 c-28 -12 -37 -12 -30 0 3 6 16 10 28 9 21 0 21
-1 2 -9z m-425 -56 c0 -9 -5 -14 -12 -12 -18 6 -21 28 -4 28 9 0 16 -7 16 -16z
m-2508 -126 c-15 -15 -24 -6 -16 16 5 12 10 14 17 7 8 -8 8 -14 -1 -23z m-512
7 c14 -17 5 -36 -15 -28 -16 6 -21 43 -6 43 5 0 14 -7 21 -15z m329 -59 c10
-12 8 -13 -9 -9 -25 7 -37 23 -17 23 8 0 20 -6 26 -14z m41 -36 c0 -5 7 -10
15 -10 13 0 13 -3 3 -20 -7 -10 -14 -17 -17 -15 -2 3 -10 0 -16 -5 -14 -12
-45 -3 -45 13 0 16 31 47 47 47 7 0 13 -4 13 -10z m40 -114 c0 -21 -20 -30
-33 -17 -9 9 -8 14 3 21 21 14 30 12 30 -4z m-477 -11 c8 -18 -11 -31 -25 -17
-11 11 -3 32 12 32 4 0 10 -7 13 -15z m327 1 c-38 -13 -45 -13 -35 3 3 6 21
11 38 10 l32 0 -35 -13z m2986 3 c7 -13 -9 -26 -44 -35 -30 -8 -36 -1 -20 25
14 22 52 28 64 10z m-3511 -59 c3 -5 1 -10 -4 -10 -6 0 -11 5 -11 10 0 6 2 10
4 10 3 0 8 -4 11 -10z m131 -51 c3 -6 1 -16 -5 -22 -13 -13 -42 0 -49 21 -5
15 44 16 54 1z m868 -78 c21 -9 66 -83 66 -112 0 -4 -19 0 -42 10 -24 10 -61
21 -83 24 -39 5 -39 5 -17 -10 21 -15 33 -51 12 -38 -6 4 -9 3 -8 -2 4 -16
-23 -81 -42 -98 -11 -10 -20 -15 -20 -11 0 4 -17 -6 -37 -23 -37 -30 -57 -34
-34 -7 10 12 6 14 -21 13 -18 -1 -37 -6 -41 -12 -12 -16 4 67 19 95 17 33 119
132 164 159 40 24 48 25 84 12z m977 -33 c43 -13 48 -26 19 -53 -16 -15 -30
-16 -87 -10 -98 10 -74 -1 31 -14 126 -17 151 -35 106 -76 -16 -15 -30 -17
-77 -11 -72 8 -66 -1 8 -11 46 -7 54 -12 57 -31 7 -45 -21 -53 -153 -47 -66 4
-130 9 -142 12 -13 3 -23 1 -23 -4 0 -6 47 -13 105 -16 58 -3 110 -9 115 -12
16 -10 -7 -44 -36 -56 -37 -14 -197 -14 -202 0 -3 9 -7 9 -18 0 -10 -8 -26 -8
-64 1 l-51 12 6 42 c10 69 25 94 70 121 24 13 69 54 100 89 31 36 66 67 78 69
45 9 121 7 158 -5z m-871 -121 c30 -16 63 -35 73 -42 17 -12 17 -14 -10 -19
-32 -7 -68 -37 -107 -89 -28 -37 -107 -218 -132 -303 -8 -30 -17 -54 -19 -54
-3 0 -20 8 -40 17 -40 19 -40 23 -25 137 9 63 8 80 -5 105 -23 45 -19 70 19
116 19 23 51 69 70 103 48 82 72 85 176 29z m2314 -343 c5 -14 4 -15 -9 -4
-17 14 -19 20 -6 20 5 0 12 -7 15 -16z m-3016 -26 c3 -15 -4 -18 -32 -18 -34
0 -35 1 -24 20 15 25 51 23 56 -2z m-478 -49 c0 -20 -24 -26 -35 -9 -4 6 -4
17 -1 25 7 20 36 7 36 -16z m331 -34 c0 -5 -9 -11 -21 -13 -20 -3 -27 8 -13
22 10 9 34 3 34 -9z m3539 -26 c0 -12 -29 -24 -37 -16 -3 4 -3 13 0 21 6 16
37 11 37 -5z m-3665 1 c3 -6 15 -5 31 2 22 10 28 9 40 -7 8 -10 12 -20 11 -22
-2 -1 -54 -4 -115 -6 -84 -3 -115 0 -123 10 -17 19 17 29 55 15 25 -10 33 -9
45 3 17 17 47 20 56 5z m2895 -39 c0 -24 -12 -27 -84 -21 -52 4 -57 7 -43 19
9 7 27 11 39 8 13 -4 30 -2 38 3 25 16 50 12 50 -9z m-2548 -20 l33 -30 -35 1
c-19 0 -50 -1 -68 -2 -52 -5 -59 14 -15 38 49 27 47 27 85 -7z m-292 -161 c0
-5 -4 -10 -10 -10 -5 0 -10 5 -10 10 0 6 5 10 10 10 6 0 10 -4 10 -10z m-55
-30 c3 -5 19 -7 35 -3 19 3 39 0 55 -11 13 -9 31 -16 38 -16 8 0 20 -6 27 -14
6 -8 25 -16 42 -18 18 -2 33 -8 35 -14 7 -21 -25 -23 -63 -4 -36 18 -43 18
-79 5 -52 -18 -65 -18 -65 0 0 8 7 15 15 15 21 0 19 20 -2 21 -10 1 -22 1 -27
0 -13 -3 -46 31 -40 40 7 12 21 11 29 -1z m410 -90 c3 -5 -1 -10 -9 -10 -8 0
-18 -9 -21 -20 -7 -21 -30 -27 -40 -9 -4 5 1 19 11 30 18 20 49 25 59 9z m739
-30 c14 -5 26 -14 26 -20 0 -6 -12 -4 -30 5 -44 23 -42 33 4 15z m-884 -4 c0
-2 -7 -7 -16 -10 -8 -3 -12 -2 -9 4 6 10 25 14 25 6z m-160 -40 c0 -18 -27
-29 -36 -14 -4 5 0 14 7 19 20 13 29 11 29 -5z"/>
<path d="M940 2786 c0 -10 9 -16 21 -16 24 0 21 23 -4 28 -10 2 -17 -3 -17
-12z"/>
<path d="M1030 989 c11 -8 12 -12 3 -16 -7 -2 -13 -10 -13 -16 0 -6 7 -4 16 5
17 17 12 38 -9 38 -7 0 -6 -4 3 -11z"/>
<path d="M991 908 c-11 -29 5 -36 24 -12 19 25 18 34 0 34 -9 0 -19 -10 -24
-22z"/>
<path d="M1829 783 c-13 -16 -12 -17 4 -4 16 13 21 21 13 21 -2 0 -10 -8 -17
-17z"/>
<path d="M2724 3975 c-5 -13 -43 -60 -84 -103 -41 -43 -90 -94 -109 -114 l-33
-36 26 -38 c14 -21 26 -43 26 -49 0 -6 9 -19 21 -28 23 -20 14 -28 178 148 41
44 111 117 155 163 l81 82 -126 0 c-124 0 -125 0 -135 -25z"/>
<path d="M3032 3971 c2 -7 7 -12 11 -12 12 1 9 15 -3 20 -7 2 -11 -2 -8 -8z"/>
<path d="M2077 3854 c-3 -4 -21 -10 -39 -14 l-33 -8 30 -1 c17 0 41 6 55 14
16 9 20 14 9 15 -9 0 -18 -3 -22 -6z"/>
<path d="M2095 3820 c3 -5 8 -10 11 -10 2 0 4 5 4 10 0 6 -5 10 -11 10 -5 0
-7 -4 -4 -10z"/>
<path d="M2301 3783 c29 -50 33 -53 24 -23 -4 14 -12 27 -16 28 -5 2 -9 10 -9
18 0 8 -5 14 -11 14 -6 0 0 -17 12 -37z"/>
<path d="M2350 3756 c0 -19 5 -26 20 -26 11 0 20 7 20 15 0 16 -15 21 -23 8
-2 -5 -2 -3 -1 4 2 7 -1 15 -6 18 -6 4 -10 -5 -10 -19z"/>
<path d="M1814 3755 c-10 -8 -14 -15 -8 -15 6 0 17 7 24 15 16 19 9 19 -16 0z"/>
<path d="M2276 3715 c-3 -9 0 -15 9 -15 16 0 20 16 6 24 -5 3 -11 -1 -15 -9z"/>
<path d="M2395 3710 c3 -5 8 -10 11 -10 2 0 4 5 4 10 0 6 -5 10 -11 10 -5 0
-7 -4 -4 -10z"/>
<path d="M2440 3706 c0 -8 5 -18 10 -21 6 -3 10 1 10 9 0 8 -4 18 -10 21 -5 3
-10 -1 -10 -9z"/>
<path d="M2422 3685 c0 -16 2 -22 5 -12 2 9 2 23 0 30 -3 6 -5 -1 -5 -18z"/>
<path d="M2392 3620 c0 -14 2 -19 5 -12 2 6 2 18 0 25 -3 6 -5 1 -5 -13z"/>
<path d="M2481 3589 c-17 -18 -27 -37 -23 -43 4 -7 8 -4 10 7 2 9 8 15 13 11
5 -3 6 -10 3 -16 -4 -6 -2 -13 3 -17 6 -3 20 -26 31 -51 12 -25 21 -37 22 -26
0 16 2 17 17 5 15 -13 16 -11 10 17 -3 19 -1 36 6 44 9 10 9 11 -2 5 -11 -6
-13 -2 -9 18 5 28 3 34 -29 61 -22 18 -22 18 -52 -15z m26 -11 c-3 -8 -6 -5
-6 6 -1 11 2 17 5 13 3 -3 4 -12 1 -19z m48 -96 c-3 -3 -11 0 -18 7 -9 10 -8
11 6 5 10 -3 15 -9 12 -12z"/>
<path d="M2540 3210 c0 -5 5 -10 10 -10 6 0 10 5 10 10 0 6 -4 10 -10 10 -5 0
-10 -4 -10 -10z"/>
<path d="M2710 3193 c-8 -2 -21 -7 -29 -9 -13 -4 -13 -7 0 -18 17 -17 79 -10
79 9 0 10 -25 28 -33 24 -1 0 -9 -3 -17 -6z"/>
<path d="M2535 3153 c-34 -47 -17 -179 18 -144 5 5 9 30 9 56 1 34 4 42 11 30
5 -9 7 -25 4 -36 -3 -10 -1 -22 4 -25 15 -9 40 64 37 104 -3 33 -6 37 -33 40
-23 1 -35 -4 -50 -25z"/>
<path d="M2508 2922 c-30 -4 -39 -22 -10 -22 18 0 50 17 42 22 -3 2 -17 2 -32
0z"/>
<path d="M560 1550 c0 -11 6 -20 14 -20 24 0 26 15 5 28 -16 11 -19 9 -19 -8z"/>
<path d="M0 1515 c0 -21 5 -25 29 -25 32 0 63 27 40 34 -58 18 -69 17 -69 -9z"/>
<path d="M167 1393 c-4 -3 -7 -17 -7 -29 0 -26 26 -44 63 -44 19 0 24 5 22 23
-1 12 -3 30 -4 40 -1 12 -10 17 -34 17 -19 0 -37 -3 -40 -7z"/>
<path d="M3317 1129 c-9 -6 -23 -9 -31 -7 -8 2 -15 -1 -15 -7 0 -13 49 -9 62
4 15 15 5 21 -16 10z"/>
<path d="M3856 1125 c-10 -7 -15 -18 -12 -24 7 -11 94 -26 103 -18 6 7 -48 56
-62 56 -5 0 -18 -6 -29 -14z"/>
<path d="M660 1083 c8 -3 18 -11 22 -17 5 -7 8 -4 8 7 0 11 -7 17 -22 16 -16
0 -18 -2 -8 -6z"/>
<path d="M3893 1043 c-18 -6 -16 -43 1 -43 16 0 27 22 18 37 -4 5 -13 8 -19 6z"/>
<path d="M3395 1020 c3 -5 8 -10 11 -10 2 0 4 5 4 10 0 6 -5 10 -11 10 -5 0
-7 -4 -4 -10z"/>
<path d="M3970 1011 c-12 -23 -5 -47 16 -55 11 -4 14 4 14 34 0 43 -13 52 -30
21z"/>
<path d="M0 1000 c0 -17 7 -20 40 -20 46 0 51 10 13 28 -38 17 -53 15 -53 -8z"/>
<path d="M3630 970 c0 -10 49 -50 62 -50 5 0 8 7 6 16 -3 17 -68 49 -68 34z"/>
<path d="M460 960 c0 -5 7 -10 15 -10 8 0 15 5 15 10 0 6 -7 10 -15 10 -8 0
-15 -4 -15 -10z"/>
<path d="M3760 963 c0 -6 10 -17 22 -25 25 -17 19 -47 -11 -55 -28 -7 -10 -62
20 -63 4 0 10 16 13 35 4 20 13 35 21 35 15 0 45 37 45 57 0 18 -20 16 -42 -4
-17 -15 -20 -15 -43 7 -14 13 -25 19 -25 13z"/>
<path d="M3463 943 c-20 -7 -15 -23 7 -23 11 0 20 4 20 9 0 13 -12 19 -27 14z"/>
<path d="M27 903 c-8 -13 3 -53 14 -53 6 0 12 7 16 16 6 17 -21 51 -30 37z"/>
<path d="M3514 893 c-1 -10 -4 -26 -9 -35 -5 -14 -2 -18 13 -18 29 0 37 17 21
46 -15 28 -24 31 -25 7z"/>
<path d="M103 886 c4 -9 10 -22 13 -30 3 -8 -1 -20 -9 -27 -12 -12 -11 -16 10
-33 21 -16 29 -17 50 -7 18 8 29 9 37 1 13 -13 63 -13 71 0 3 6 -3 10 -13 10
-11 0 -25 7 -33 16 -7 8 -21 13 -31 10 -14 -3 -17 -1 -9 8 15 18 -21 47 -43
34 -16 -9 -17 -8 -20 14 0 6 -7 13 -15 16 -10 3 -12 0 -8 -12z"/>
<path d="M3595 890 c-7 -11 35 -31 48 -23 4 2 7 -5 7 -16 0 -22 24 -28 49 -12
12 8 13 12 1 26 -10 13 -15 13 -21 3 -6 -9 -9 -9 -9 -1 0 6 -14 16 -31 22 -39
13 -36 13 -44 1z"/>
<path d="M3236 881 c-11 -4 -15 -10 -10 -14 14 -8 54 3 54 14 0 11 -17 11 -44
0z"/>
<path d="M3952 869 c2 -7 10 -15 17 -17 8 -3 12 1 9 9 -2 7 -10 15 -17 17 -8
3 -12 -1 -9 -9z"/>
<path d="M3430 850 c0 -5 7 -10 15 -10 8 0 15 5 15 10 0 6 -7 10 -15 10 -8 0
-15 -4 -15 -10z"/>
<path d="M0 807 c0 -30 6 -48 20 -60 18 -15 20 -15 28 1 12 26 9 87 -5 87 -6
0 -15 3 -19 8 -16 16 -24 5 -24 -36z"/>
<path d="M3832 833 c4 -20 18 -26 37 -14 18 12 5 31 -20 31 -14 0 -19 -6 -17
-17z"/>
<path d="M3490 782 c-20 -16 -20 -19 -7 -31 19 -15 57 -6 57 13 0 8 -6 19 -14
25 -10 9 -19 7 -36 -7z"/>
<path d="M3372 777 c-9 -11 -10 -17 -2 -22 15 -9 23 -1 18 21 -3 15 -4 16 -16
1z"/>
<path d="M3670 765 c0 -8 -9 -24 -20 -35 -23 -23 -20 -25 57 -34 28 -4 54 -2
57 3 8 12 -4 42 -14 36 -4 -2 -20 7 -34 20 -31 28 -46 32 -46 10z"/>
<path d="M3747 773 c-4 -3 2 -13 14 -21 26 -18 35 -10 11 11 -10 10 -22 14
-25 10z"/>
<path d="M337 753 c14 -36 29 -44 47 -24 16 18 15 19 -15 30 -41 14 -40 14
-32 -6z"/>
<path d="M3890 750 c0 -21 -38 -37 -66 -26 -20 8 -41 -4 -25 -14 9 -5 9 -13 0
-33 -7 -15 -10 -29 -8 -32 10 -9 49 8 49 21 0 17 9 17 51 1 19 -7 50 -11 69
-8 34 6 35 8 37 53 3 54 -5 63 -42 46 -21 -9 -31 -9 -46 0 -16 11 -19 9 -19
-8z"/>
<path d="M0 711 c0 -32 16 -42 26 -16 3 8 -1 22 -10 30 -15 15 -16 14 -16 -14z"/>
<path d="M3245 707 c-4 -8 -5 -23 -3 -33 3 -16 -5 -19 -49 -22 -49 -3 -53 -5
-53 -28 0 -26 -5 -25 117 -29 24 0 48 -6 54 -12 15 -15 49 -4 49 16 0 36 -17
46 -78 50 -7 1 -11 5 -7 10 3 5 20 7 38 5 20 -4 39 0 52 10 29 21 9 36 -58 43
-45 5 -58 3 -62 -10z"/>
<path d="M3464 655 c-10 -7 -29 -11 -40 -9 -29 7 -40 -12 -14 -26 11 -6 20 -7
20 -2 0 4 16 6 35 4 31 -4 35 -2 32 17 -5 29 -11 33 -33 16z"/>
<path d="M3310 224 c0 -8 5 -12 10 -9 6 3 10 10 10 16 0 5 -4 9 -10 9 -5 0
-10 -7 -10 -16z"/>
<path d="M3456 233 c-11 -11 -7 -22 15 -44 23 -23 19 -49 -7 -49 -10 0 -14 5
-11 14 13 33 -78 59 -106 31 -10 -9 -17 -20 -17 -25 0 -5 -9 -18 -21 -29 l-21
-19 21 -12 c12 -6 19 -15 16 -19 -2 -5 7 -11 20 -14 14 -2 28 0 31 4 3 5 0 9
-5 9 -6 0 -11 4 -11 9 0 9 78 26 95 21 6 -2 21 -4 35 -5 46 -4 50 -5 50 -20 0
-9 9 -15 21 -15 15 0 19 4 15 16 -3 9 -6 20 -6 25 0 5 -11 7 -24 3 -31 -7 -40
17 -24 62 11 31 15 34 55 34 24 0 43 4 43 9 0 5 -31 9 -69 9 -38 0 -73 2 -79
6 -5 3 -12 3 -16 -1z"/>
<path d="M3720 212 c0 -4 10 -13 21 -20 16 -10 24 -11 33 -2 8 8 7 13 -4 20
-18 12 -50 13 -50 2z"/>
<path d="M3851 178 c-22 -21 -46 -38 -54 -38 -20 0 -25 -9 -20 -31 7 -24 45
-19 86 12 16 11 35 18 43 15 7 -3 22 3 31 13 10 10 29 24 41 30 30 16 25 20
-36 30 -50 8 -52 7 -91 -31z"/>
<path d="M3123 191 c1 -12 7 -17 19 -13 22 5 23 18 2 26 -22 9 -23 8 -21 -13z"/>
<path d="M36 169 c21 -24 38 -25 26 -2 -6 9 -17 18 -27 19 -16 2 -15 1 1 -17z"/>
<path d="M3696 175 c-3 -8 -1 -15 4 -15 6 0 10 7 10 15 0 8 -2 15 -4 15 -2 0
-6 -7 -10 -15z"/>
<path d="M3180 160 c0 -5 5 -10 10 -10 6 0 10 5 10 10 0 6 -4 10 -10 10 -5 0
-10 -4 -10 -10z"/>
<path d="M3560 150 c13 -23 20 -26 20 -6 0 8 -7 16 -15 20 -13 4 -14 2 -5 -14z"/>
<path d="M3094 145 c-3 -8 -3 -19 1 -25 10 -17 31 -11 32 9 2 23 -25 37 -33
16z"/>
<path d="M3720 131 c0 -18 18 -21 30 -6 10 13 9 15 -9 15 -11 0 -21 -4 -21 -9z"/>
<path d="M3967 115 c-3 -7 -28 -16 -56 -20 l-51 -7 0 -44 0 -44 43 0 c38 1 40
2 23 15 -26 20 -14 41 31 52 27 6 39 15 41 30 3 23 -24 39 -31 18z"/>
<path d="M3233 101 c1 -12 6 -20 12 -18 14 5 13 29 -2 34 -7 3 -11 -4 -10 -16z"/>
<path d="M3623 104 c-7 -18 11 -39 26 -30 17 11 13 46 -4 46 -9 0 -18 -7 -22
-16z"/>
<path d="M3127 56 c-4 -10 0 -12 14 -9 10 3 16 9 13 14 -8 13 -21 11 -27 -5z"/>
<path d="M3087 49 c7 -7 15 -10 18 -7 3 3 -2 9 -12 12 -14 6 -15 5 -6 -5z"/>
<path d="M3674 34 c3 -9 6 -20 6 -25 0 -5 15 -9 33 -8 29 0 30 1 9 9 -12 5
-25 16 -28 25 -4 8 -11 15 -16 15 -6 0 -7 -7 -4 -16z"/>
<path d="M3476 33 c-3 -3 -19 -6 -37 -7 -18 -1 -34 -7 -37 -14 -3 -10 12 -12
59 -10 49 2 64 7 67 19 2 12 -4 17 -22 17 -14 0 -27 -3 -30 -5z"/>
<path d="M3180 15 c-11 -13 -6 -15 35 -15 41 0 46 2 35 15 -7 8 -23 15 -35 15
-12 0 -28 -7 -35 -15z"/>
<path d="M895 10 c-4 -6 5 -10 20 -10 15 0 24 4 20 10 -8 13 -32 13 -40 0z"/>
<path d="M18 3 c6 -2 18 -2 25 0 6 3 1 5 -13 5 -14 0 -19 -2 -12 -5z"/>
</g>
</svg>
